<svg width="24" height="24" viewBox="0 0 24 24" fill="none" xmlns="http://www.w3.org/2000/svg">
<path d="M7.755 13.38V20.21C7.755 20.6184 7.59275 21.0101 7.30394 21.2989C7.01514 21.5878 6.62343 21.75 6.215 21.75H4.405C4.20192 21.7513 4.00059 21.7125 3.81259 21.6357C3.62460 21.5589 3.45365 21.4456 3.30958 21.3025C3.16552 21.1594 3.05119 20.9891 2.97317 20.8017C2.89516 20.6142 2.85499 20.4131 2.855 20.21V13.38C2.85367 13.1761 2.89285 12.9739 2.97028 12.7853C3.04770 12.5966 3.16182 12.4252 3.30602 12.281C3.45022 12.1368 3.62162 12.0227 3.81027 11.9453C3.99892 11.8679 4.20108 11.8287 4.405 11.83H6.215C6.41808 11.83 6.61915 11.8702 6.80665 11.9482C6.99415 12.0262 7.16436 12.1405 7.30749 12.2846C7.45063 12.4286 7.56385 12.5996 7.64066 12.7876C7.71746 12.9756 7.75632 13.1769 7.755 13.38ZM14.455 3.8V20.21C14.455 20.4131 14.4148 20.6142 14.3368 20.8017C14.2588 20.9891 14.1445 21.1594 14.0004 21.3025C13.8563 21.4456 13.6854 21.5589 13.4974 21.6357C13.3094 21.7125 13.1081 21.7513 12.905 21.75H11.095C10.6856 21.75 10.2929 21.5881 10.0025 21.2996C9.71211 21.011 9.54764 20.6193 9.545 20.21V3.8C9.54762 3.38972 9.71176 2.997 10.0019 2.70688C10.2920 2.41677 10.6847 2.25262 11.095 2.25H12.905C13.3161 2.25 13.7103 2.4133 14.0010 2.70398C14.2917 2.99467 14.455 3.38891 14.455 3.8ZM21.145 8.98V20.21C21.145 20.6184 20.9827 21.0101 20.6939 21.2989C20.4051 21.5878 20.0134 21.75 19.605 21.75H17.795C17.5919 21.7513 17.3906 21.7125 17.2026 21.6357C17.0146 21.5589 16.8436 21.4456 16.6996 21.3025C16.5555 21.1594 16.4412 20.9891 16.3632 20.8017C16.2852 20.6142 16.245 20.4131 16.245 20.21V8.98C16.245 8.77645 16.2851 8.57490 16.3630 8.38684C16.4409 8.19879 16.5551 8.02792 16.6990 7.88398C16.8429 7.74005 17.0138 7.62588 17.2018 7.54799C17.3899 7.47009 17.5914 7.43 17.795 7.43H19.645C20.0474 7.44299 20.4289 7.612 20.7088 7.90129C20.9888 8.19058 21.1452 8.57743 21.145 8.98Z" fill="currentColor"/>
</svg>