<svg width="42" height="42" viewBox="0 0 42 42" fill="none" xmlns="http://www.w3.org/2000/svg">
<g clip-path="url(#clip0_1955_9029)">
<path fill-rule="evenodd" clip-rule="evenodd" d="M28.3334 15.5013C28.3334 17.4462 27.5608 19.3115 26.1855 20.6868C24.8103 22.062 22.945 22.8346 21.0001 22.8346C19.0552 22.8346 17.1899 22.062 15.8146 20.6868C14.4394 19.3115 13.6667 17.4462 13.6667 15.5013C13.6667 13.5564 14.4394 11.6911 15.8146 10.3159C17.1899 8.94059 19.0552 8.16797 21.0001 8.16797C22.945 8.16797 24.8103 8.94059 26.1855 10.3159C27.5608 11.6911 28.3334 13.5564 28.3334 15.5013ZM24.6667 15.5013C24.6667 16.4738 24.2804 17.4064 23.5928 18.094C22.9052 18.7817 21.9725 19.168 21.0001 19.168C20.0276 19.168 19.095 18.7817 18.4074 18.094C17.7197 17.4064 17.3334 16.4738 17.3334 15.5013C17.3334 14.5288 17.7197 13.5962 18.4074 12.9086C19.095 12.2209 20.0276 11.8346 21.0001 11.8346C21.9725 11.8346 22.9052 12.2209 23.5928 12.9086C24.2804 13.5962 24.6667 14.5288 24.6667 15.5013Z" fill="#1A1D24"/>
<path fill-rule="evenodd" clip-rule="evenodd" d="M21 0.833984C9.86254 0.833984 0.833374 9.86315 0.833374 21.0007C0.833374 32.1381 9.86254 41.1673 21 41.1673C32.1375 41.1673 41.1667 32.1381 41.1667 21.0007C41.1667 9.86315 32.1375 0.833984 21 0.833984ZM4.50004 21.0007C4.50004 24.8323 5.80721 28.3596 7.99804 31.161C9.53663 29.1405 11.5215 27.503 13.7977 26.3766C16.0738 25.2501 18.5796 24.6651 21.1192 24.6673C23.626 24.6649 26.1002 25.2348 28.3534 26.3334C30.6066 27.4321 32.5793 29.0305 34.1212 31.007C35.7097 28.9236 36.7792 26.4919 37.2413 23.9131C37.7035 21.3342 37.5448 18.6825 36.7786 16.1771C36.0124 13.6718 34.6606 11.3849 32.8351 9.50572C31.0096 7.62653 28.7628 6.20906 26.2807 5.37058C23.7986 4.53211 21.1526 4.29673 18.5614 4.68393C15.9703 5.07114 13.5087 6.06979 11.3801 7.59725C9.25158 9.12471 7.51736 11.1371 6.32096 13.4678C5.12456 15.7986 4.50037 18.3808 4.50004 21.0007ZM21 37.5006C17.2123 37.5063 13.5389 36.2033 10.6014 33.812C11.7837 32.1193 13.3575 30.7373 15.1887 29.7836C17.02 28.8298 19.0545 28.3325 21.1192 28.334C23.1582 28.3323 25.1681 28.8172 26.9821 29.7483C28.796 30.6793 30.3617 32.0297 31.549 33.6873C28.5888 36.1563 24.8548 37.5061 21 37.5006Z" fill="#1A1D24"/>
</g>
<defs>
<clipPath id="clip0_1955_9029">
<rect width="42" height="42" fill="white"/>
</clipPath>
</defs>
</svg>
