<svg width="18" height="18" viewBox="0 0 18 18" fill="none" xmlns="http://www.w3.org/2000/svg">
<path fill-rule="evenodd" clip-rule="evenodd" d="M3.9375 2.8125V15.1875H14.0625V2.8125H3.9375ZM3.375 1.125C3.07663 1.125 2.79048 1.24353 2.5795 1.4545C2.36853 1.66548 2.25 1.95163 2.25 2.25V15.75C2.25 16.0484 2.36853 16.3345 2.5795 16.5455C2.79048 16.7565 3.07663 16.875 3.375 16.875H14.625C14.9234 16.875 15.2095 16.7565 15.4205 16.5455C15.6315 16.3345 15.75 16.0484 15.75 15.75V2.25C15.75 1.95163 15.6315 1.66548 15.4205 1.4545C15.2095 1.24353 14.9234 1.125 14.625 1.125H3.375ZM9 12.375C9 12.1512 9.0889 11.9366 9.24713 11.7784C9.40536 11.6201 9.61997 11.5312 9.84375 11.5312H11.8125C12.0363 11.5312 12.2509 11.6201 12.4091 11.7784C12.5674 11.9366 12.6562 12.1512 12.6562 12.375C12.6562 12.5988 12.5674 12.8134 12.4091 12.9716C12.2509 13.1299 12.0363 13.2188 11.8125 13.2188H9.84375C9.61997 13.2188 9.40536 13.1299 9.24713 12.9716C9.0889 12.8134 9 12.5988 9 12.375ZM6.75 13.5C7.04837 13.5 7.33452 13.3815 7.5455 13.1705C7.75647 12.9595 7.875 12.6734 7.875 12.375C7.875 12.0766 7.75647 11.7905 7.5455 11.5795C7.33452 11.3685 7.04837 11.25 6.75 11.25C6.45163 11.25 6.16548 11.3685 5.9545 11.5795C5.74353 11.7905 5.625 12.0766 5.625 12.375C5.625 12.6734 5.74353 12.9595 5.9545 13.1705C6.16548 13.3815 6.45163 13.5 6.75 13.5ZM9 9C9 8.77622 9.0889 8.56161 9.24713 8.40338C9.40536 8.24514 9.61997 8.15625 9.84375 8.15625H11.8125C12.0363 8.15625 12.2509 8.24514 12.4091 8.40338C12.5674 8.56161 12.6562 8.77622 12.6562 9C12.6562 9.22378 12.5674 9.43839 12.4091 9.59662C12.2509 9.75486 12.0363 9.84375 11.8125 9.84375H9.84375C9.61997 9.84375 9.40536 9.75486 9.24713 9.59662C9.0889 9.43839 9 9.22378 9 9ZM6.75 10.125C7.04837 10.125 7.33452 10.0065 7.5455 9.7955C7.75647 9.58452 7.875 9.29837 7.875 9C7.875 8.70163 7.75647 8.41548 7.5455 8.2045C7.33452 7.99353 7.04837 7.875 6.75 7.875C6.45163 7.875 6.16548 7.99353 5.9545 8.2045C5.74353 8.41548 5.625 8.70163 5.625 9C5.625 9.29837 5.74353 9.58452 5.9545 9.7955C6.16548 10.0065 6.45163 10.125 6.75 10.125ZM9 5.625C9 5.40122 9.0889 5.18661 9.24713 5.02838C9.40536 4.87014 9.61997 4.78125 9.84375 4.78125H11.8125C12.0363 4.78125 12.2509 4.87014 12.4091 5.02838C12.5674 5.18661 12.6562 5.40122 12.6562 5.625C12.6562 5.84878 12.5674 6.06339 12.4091 6.22162C12.2509 6.37986 12.0363 6.46875 11.8125 6.46875H9.84375C9.61997 6.46875 9.40536 6.37986 9.24713 6.22162C9.0889 6.06339 9 5.84878 9 5.625ZM6.75 6.75C7.04837 6.75 7.33452 6.63147 7.5455 6.4205C7.75647 6.20952 7.875 5.92337 7.875 5.625C7.875 5.32663 7.75647 5.04048 7.5455 4.8295C7.33452 4.61853 7.04837 4.5 6.75 4.5C6.45163 4.5 6.16548 4.61853 5.9545 4.8295C5.74353 5.04048 5.625 5.32663 5.625 5.625C5.625 5.92337 5.74353 6.20952 5.9545 6.4205C6.16548 6.63147 6.45163 6.75 6.75 6.75Z" fill="white"/>
</svg>
