<svg width="18" height="18" viewBox="0 0 18 18" fill="none" xmlns="http://www.w3.org/2000/svg">
<path d="M15.0469 7.875H10.125C9.67745 7.875 9.24822 7.69721 8.93176 7.38074C8.61529 7.06428 8.4375 6.63505 8.4375 6.1875V1.26562C8.4375 1.22833 8.42268 1.19256 8.39631 1.16619C8.36994 1.13982 8.33417 1.125 8.29688 1.125H5.0625C4.46576 1.125 3.89347 1.36205 3.47151 1.78401C3.04955 2.20597 2.8125 2.77826 2.8125 3.375V14.625C2.8125 15.2217 3.04955 15.794 3.47151 16.216C3.89347 16.6379 4.46576 16.875 5.0625 16.875H12.9375C13.5342 16.875 14.1065 16.6379 14.5285 16.216C14.9504 15.794 15.1875 15.2217 15.1875 14.625V8.01562C15.1875 7.97833 15.1727 7.94256 15.1463 7.91619C15.1199 7.88982 15.0842 7.875 15.0469 7.875Z" fill="white"/>
<path d="M14.7382 6.63095L9.68238 1.57513C9.67255 1.56536 9.66005 1.55871 9.64645 1.55602C9.63285 1.55333 9.61876 1.55473 9.60594 1.56002C9.59313 1.56532 9.58217 1.57429 9.57444 1.5858C9.56671 1.5973 9.56256 1.61084 9.5625 1.6247V6.18834C9.5625 6.33752 9.62176 6.4806 9.72725 6.58609C9.83274 6.69157 9.97582 6.75084 10.125 6.75084H14.6886C14.7025 6.75078 14.716 6.74662 14.7275 6.73889C14.7391 6.73116 14.748 6.7202 14.7533 6.70739C14.7586 6.69458 14.76 6.68049 14.7573 6.66689C14.7546 6.65329 14.748 6.64079 14.7382 6.63095Z" fill="white"/>
</svg>
