<svg width="22" height="22" viewBox="0 0 22 22" fill="none" xmlns="http://www.w3.org/2000/svg">
<path fill-rule="evenodd" clip-rule="evenodd" d="M6.87501 6.41732V5.95898C6.87501 4.86497 7.3096 3.81576 8.08319 3.04217C8.85678 2.26858 9.90599 1.83398 11 1.83398C12.094 1.83398 13.1432 2.26858 13.9168 3.04217C14.6904 3.81576 15.125 4.86497 15.125 5.95898V6.41732H17.4167C17.9227 6.41732 18.3333 6.8289 18.3333 7.3404V18.3413C18.3333 19.3497 17.5129 20.1673 16.5055 20.1673H5.49451C5.01005 20.1673 4.54541 19.975 4.20268 19.6326C3.85995 19.2902 3.66716 18.8258 3.66667 18.3413V7.34132C3.66667 6.82982 4.07459 6.41732 4.58334 6.41732H6.87501ZM8.25001 6.41732H13.75V5.95898C13.75 5.22964 13.4603 4.53017 12.9445 4.01444C12.4288 3.49872 11.7294 3.20898 11 3.20898C10.2707 3.20898 9.57119 3.49872 9.05546 4.01444C8.53974 4.53017 8.25001 5.22964 8.25001 5.95898V6.41732ZM6.87501 6.41732V10.084H8.25001V6.41732H6.87501ZM13.75 6.41732V10.084H15.125V6.41732H13.75Z" fill="white"/>
</svg>
