<svg width="19" height="19" viewBox="0 0 19 19" fill="none" xmlns="http://www.w3.org/2000/svg">
<path d="M13.0625 11.2812C13.0625 11.5962 12.9374 11.8982 12.7147 12.1209C12.492 12.3436 12.1899 12.4688 11.875 12.4688H8.3125V10.0938H11.875C12.1899 10.0938 12.492 10.2189 12.7147 10.4416C12.9374 10.6643 13.0625 10.9663 13.0625 11.2812ZM17.8125 9.5C17.8125 11.0266 17.3598 12.519 16.5117 13.7883C15.6635 15.0576 14.458 16.047 13.0476 16.6312C11.6372 17.2154 10.0852 17.3683 8.5879 17.0704C7.09061 16.7726 5.71526 16.0375 4.63577 14.958C3.55629 13.8785 2.82115 12.5031 2.52332 11.0059C2.22549 9.50856 2.37834 7.95658 2.96256 6.54616C3.54677 5.13574 4.5361 3.93024 5.80545 3.08209C7.07479 2.23395 8.56713 1.78125 10.0938 1.78125C12.1402 1.78341 14.1023 2.59733 15.5493 4.04441C16.9964 5.49148 17.8103 7.45352 17.8125 9.5ZM14.25 11.2812C14.25 10.8716 14.1439 10.4688 13.9422 10.1122C13.7405 9.75565 13.45 9.45729 13.0989 9.24617C13.3572 8.93897 13.5335 8.57131 13.6112 8.17751C13.689 7.78372 13.6656 7.37665 13.5434 6.99432C13.4212 6.61199 13.204 6.26687 12.9123 5.99121C12.6205 5.71555 12.2636 5.51833 11.875 5.41797V4.75C11.875 4.59253 11.8124 4.44151 11.7011 4.33016C11.5897 4.21881 11.4387 4.15625 11.2813 4.15625C11.1238 4.15625 10.9728 4.21881 10.8614 4.33016C10.7501 4.44151 10.6875 4.59253 10.6875 4.75V5.34375H9.5V4.75C9.5 4.59253 9.43745 4.44151 9.3261 4.33016C9.21475 4.21881 9.06373 4.15625 8.90625 4.15625C8.74878 4.15625 8.59776 4.21881 8.48641 4.33016C8.37506 4.44151 8.3125 4.59253 8.3125 4.75V5.34375H7.125C6.96753 5.34375 6.81651 5.40631 6.70516 5.51766C6.59381 5.62901 6.53125 5.78003 6.53125 5.9375C6.53125 6.09497 6.59381 6.246 6.70516 6.35734C6.81651 6.46869 6.96753 6.53125 7.125 6.53125V12.4688C6.96753 12.4688 6.81651 12.5313 6.70516 12.6427C6.59381 12.754 6.53125 12.905 6.53125 13.0625C6.53125 13.22 6.59381 13.371 6.70516 13.4823C6.81651 13.5937 6.96753 13.6562 7.125 13.6562H8.3125V14.25C8.3125 14.4075 8.37506 14.5585 8.48641 14.6698C8.59776 14.7812 8.74878 14.8438 8.90625 14.8438C9.06373 14.8438 9.21475 14.7812 9.3261 14.6698C9.43745 14.5585 9.5 14.4075 9.5 14.25V13.6562H10.6875V14.25C10.6875 14.4075 10.7501 14.5585 10.8614 14.6698C10.9728 14.7812 11.1238 14.8438 11.2813 14.8438C11.4387 14.8438 11.5897 14.7812 11.7011 14.6698C11.8124 14.5585 11.875 14.4075 11.875 14.25V13.6562C12.5049 13.6562 13.109 13.406 13.5544 12.9606C13.9998 12.5152 14.25 11.9111 14.25 11.2812ZM12.4688 7.71875C12.4688 7.40381 12.3436 7.10176 12.1209 6.87906C11.8982 6.65636 11.5962 6.53125 11.2813 6.53125H8.3125V8.90625H11.2813C11.5962 8.90625 11.8982 8.78114 12.1209 8.55844C12.3436 8.33574 12.4688 8.03369 12.4688 7.71875Z" fill="white"/>
</svg>
