<svg width="20" height="20" viewBox="0 0 20 20" fill="none" xmlns="http://www.w3.org/2000/svg">
<path d="M7.54999 1.60746C5.97499 1.59912 4.44166 3.11579 5.14166 4.99912H2.49999C2.05797 4.99912 1.63404 5.17472 1.32148 5.48728C1.00892 5.79984 0.833328 6.22376 0.833328 6.66579V8.33246C0.833328 8.55347 0.921126 8.76543 1.07741 8.92171C1.23369 9.07799 1.44565 9.16579 1.66666 9.16579H9.16666V6.66579H10.8333V9.16579H18.3333C18.5543 9.16579 18.7663 9.07799 18.9226 8.92171C19.0789 8.76543 19.1667 8.55347 19.1667 8.33246V6.66579C19.1667 6.22376 18.9911 5.79984 18.6785 5.48728C18.3659 5.17472 17.942 4.99912 17.5 4.99912H14.8583C15.8333 2.27412 12.1667 0.349123 10.475 2.69912L9.99999 3.33246L9.52499 2.68246C8.99999 1.94079 8.27499 1.61579 7.54999 1.60746ZM7.49999 3.33246C8.24166 3.33246 8.61666 4.23246 8.09166 4.75746C7.56666 5.28246 6.66666 4.90746 6.66666 4.16579C6.66666 3.94478 6.75446 3.73281 6.91074 3.57653C7.06702 3.42025 7.27898 3.33246 7.49999 3.33246ZM12.5 3.33246C13.2417 3.33246 13.6167 4.23246 13.0917 4.75746C12.5667 5.28246 11.6667 4.90746 11.6667 4.16579C11.6667 3.94478 11.7545 3.73281 11.9107 3.57653C12.067 3.42025 12.279 3.33246 12.5 3.33246ZM1.66666 9.99912V16.6658C1.66666 17.1078 1.84226 17.5317 2.15482 17.8443C2.46738 18.1569 2.8913 18.3325 3.33333 18.3325H16.6667C17.1087 18.3325 17.5326 18.1569 17.8452 17.8443C18.1577 17.5317 18.3333 17.1078 18.3333 16.6658V9.99912H10.8333V16.6658H9.16666V9.99912H1.66666Z" fill="white"/>
</svg>
