<svg width="24" height="24" viewBox="0 0 24 24" fill="none" xmlns="http://www.w3.org/2000/svg">
<path d="M15.84 12.691L15.774 12.711C15.6396 12.7509 15.5002 12.7718 15.36 12.773C14.75 12.773 14.406 12.361 14.59 11.852C14.726 11.48 15.081 11.166 15.515 11.021C16.187 10.776 16.657 10.217 16.657 9.566C16.657 8.689 15.804 7.979 14.752 7.979C13.7 7.979 12.847 8.689 12.847 9.566V14.434C12.847 15.604 12.169 16.631 11.154 17.212C10.5739 17.5424 9.91757 17.7155 9.25 17.714C7.266 17.714 5.652 16.243 5.652 14.434C5.652 13.858 5.816 13.317 6.103 12.847C6.547 12.117 7.287 11.56 8.173 11.306C8.32633 11.2573 8.47967 11.233 8.633 11.233C9.245 11.233 9.591 11.647 9.406 12.157C9.28 12.504 8.94 12.802 8.545 12.96C8.49804 12.9756 8.45167 12.993 8.406 13.012C7.778 13.272 7.345 13.81 7.345 14.434C7.345 15.311 8.198 16.021 9.25 16.021C10.302 16.021 11.154 15.311 11.154 14.434V9.566C11.154 8.396 11.833 7.369 12.848 6.788C13.4281 6.45759 14.0844 6.28454 14.752 6.286C16.736 6.286 18.35 7.757 18.35 9.566C18.3488 10.1265 18.1927 10.6757 17.899 11.153C17.457 11.879 16.72 12.435 15.84 12.691ZM2.002 12C2.002 17.523 6.479 22 12.002 22C17.525 22 22.002 17.523 22.002 12C22.002 6.477 17.525 2 12.002 2C6.479 2 2.002 6.477 2.002 12Z" fill="white"/>
</svg>
