<svg width="20" height="20" viewBox="0 0 20 20" fill="none" xmlns="http://www.w3.org/2000/svg">
<path d="M5.41667 6.24935C5.41667 5.03377 5.89955 3.86798 6.75909 3.00844C7.61864 2.1489 8.78442 1.66602 10 1.66602C11.2156 1.66602 12.3814 2.1489 13.2409 3.00844C14.1004 3.86798 14.5833 5.03377 14.5833 6.24935C14.5833 7.46492 14.1004 8.63071 13.2409 9.49026C12.3814 10.3498 11.2156 10.8327 10 10.8327C8.78442 10.8327 7.61864 10.3498 6.75909 9.49026C5.89955 8.63071 5.41667 7.46492 5.41667 6.24935ZM2.5 15.8327C2.5 14.7276 2.93899 13.6678 3.72039 12.8864C4.50179 12.105 5.5616 11.666 6.66667 11.666H13.3333C14.4384 11.666 15.4982 12.105 16.2796 12.8864C17.061 13.6678 17.5 14.7276 17.5 15.8327V18.3327H2.5V15.8327Z" fill="white"/>
</svg>
